<?xml version="1.0" encoding="UTF-8" standalone="no"?>
<!-- Created with Inkscape (http://www.inkscape.org/) -->

<svg
   width="41mm"
   height="10mm"
   viewBox="0 0 41 10"
   version="1.1"
   id="svg5"
   inkscape:version="1.1.2 (0a00cf5339, 2022-02-04)"
   sodipodi:docname="cc2600.svg"
   xmlns:inkscape="http://www.inkscape.org/namespaces/inkscape"
   xmlns:sodipodi="http://sodipodi.sourceforge.net/DTD/sodipodi-0.dtd"
   xmlns="http://www.w3.org/2000/svg"
   xmlns:svg="http://www.w3.org/2000/svg">
  <sodipodi:namedview
     id="namedview7"
     pagecolor="#ffffff"
     bordercolor="#666666"
     borderopacity="1.0"
     inkscape:pageshadow="2"
     inkscape:pageopacity="0.0"
     inkscape:pagecheckerboard="0"
     inkscape:document-units="mm"
     showgrid="false"
     inkscape:zoom="5.5731762"
     inkscape:cx="148.6585"
     inkscape:cy="63.06996"
     inkscape:window-width="1920"
     inkscape:window-height="1016"
     inkscape:window-x="0"
     inkscape:window-y="0"
     inkscape:window-maximized="1"
     inkscape:current-layer="layer1"
     fit-margin-top="0"
     fit-margin-left="0"
     fit-margin-right="0"
     fit-margin-bottom="0" />
  <defs
     id="defs2">
    <clipPath
       clipPathUnits="userSpaceOnUse"
       id="clipPath19289">
      <path
         id="path19291"
         style="font-size:10.5833px;line-height:1.25;font-family:MumboSSK;-inkscape-font-specification:'MumboSSK, Normal';stroke-width:0.309605"
         d="m 33.920488,32.154101 c -0.790411,0 -1.481008,0.234534 -2.071822,0.704101 -0.646703,0.520793 -0.970127,1.191398 -0.970124,2.011003 0,0.973283 0.391194,1.767109 1.173623,2.381813 l 1.197599,-1.293146 c -0.431136,-0.350038 -0.64675,-0.713015 -0.64675,-1.088667 0,-0.298815 0.123822,-0.546505 0.371327,-0.742871 0.223549,-0.179287 0.4792,-0.268883 0.766625,-0.268883 0.255487,0 0.463095,0.102124 0.622773,0.307028 0.167667,0.196363 0.25145,0.431525 0.25145,0.704726 0,0.435417 -0.335143,0.998675 -1.005795,1.690219 l -1.868324,1.818407 c -0.678637,0.717156 -1.018077,1.327825 -1.018077,1.831541 0,0.315889 0.139838,0.558988 0.419278,0.729737 0.231536,0.14514 0.502618,0.217612 0.81399,0.217612 h 4.562922 v -1.690222 h -3.448941 l 2.694596,-2.907075 c 0.335325,-0.358577 0.502896,-0.900745 0.502899,-1.626436 -3e-6,-0.751308 -0.211323,-1.395601 -0.634474,-1.933467 -0.455083,-0.563478 -1.026152,-0.84542 -1.712775,-0.84542 z m 14.395159,0 c -1.245499,0 -2.255224,0.4651 -3.029667,1.395695 -0.758478,0.896446 -1.137954,2.019621 -1.137954,3.368556 0,1.357474 0.367173,2.416117 1.101698,3.175961 0.742508,0.759843 1.748523,1.139319 3.01797,1.139319 1.293405,0 2.35117,-0.430852 3.173521,-1.293145 0.830334,-0.870831 1.24555,-1.997978 1.24555,-3.381063 0,-1.33186 -0.418931,-2.407629 -1.257247,-3.227237 -0.814364,-0.785455 -1.852404,-1.178086 -3.113871,-1.178086 z m 9.281388,0 c -1.2455,0 -2.255809,0.4651 -3.030252,1.395695 -0.758476,0.896446 -1.137367,2.019621 -1.137367,3.368556 0,1.357474 0.36717,2.416117 1.101696,3.175961 0.742508,0.759843 1.748523,1.139319 3.017972,1.139319 1.293403,0 2.35117,-0.430852 3.173519,-1.293145 0.830334,-0.870831 1.245549,-1.997978 1.245549,-3.381063 0,-1.33186 -0.41893,-2.407629 -1.257244,-3.227237 -0.814366,-0.785455 -1.852406,-1.178086 -3.113873,-1.178086 z m -17.461079,0.102544 c -0.534927,0.95621 -1.069671,1.916695 -1.604595,2.88144 -0.726543,1.374547 -1.090002,2.343594 -1.090002,2.907075 0,0.896445 0.279676,1.65205 0.838552,2.266757 0.558877,0.614706 1.253186,0.92171 2.083517,0.92171 0.806382,0 1.493266,-0.260223 2.060126,-0.781013 0.606782,-0.546407 0.909894,-1.238104 0.909894,-2.074788 0,-0.768379 -0.19159,-1.442956 -0.574823,-2.02351 C 42.375394,35.765224 41.84065,35.372593 41.15403,35.17623 l -0.838552,1.588291 c 0.359278,0.03414 0.65868,0.183684 0.8982,0.44835 0.247501,0.264665 0.371324,0.584824 0.371324,0.960479 0,0.324427 -0.103511,0.622869 -0.311092,0.896073 -0.207584,0.264662 -0.463238,0.397073 -0.76663,0.397073 -0.31936,0 -0.610751,-0.132411 -0.874223,-0.397073 -0.263472,-0.273204 -0.395301,-0.580208 -0.395301,-0.921711 0,-0.478104 0.395489,-1.455713 1.185902,-2.932713 0.542912,-0.981821 1.089374,-1.967994 1.640266,-2.958354 z m 8.275592,1.58767 c 0.734526,0 1.317313,0.277971 1.748449,0.832916 0.399195,0.52079 0.598797,1.17824 0.598797,1.972233 0,0.802532 -0.215617,1.481074 -0.64675,2.036017 -0.455089,0.589092 -1.053889,0.883565 -1.796397,0.883565 -0.750493,0 -1.357304,-0.251661 -1.820376,-0.755377 -0.463068,-0.503717 -0.6947,-1.157198 -0.6947,-1.959727 0,-0.811069 0.24335,-1.506738 0.730372,-2.087292 0.510974,-0.614704 1.138094,-0.922335 1.880605,-0.922335 z m 9.281388,0 c 0.734525,0 1.317312,0.277971 1.748448,0.832916 0.399196,0.52079 0.5988,1.17824 0.5988,1.972233 0,0.802532 -0.21562,1.481074 -0.646753,2.036017 -0.455086,0.589092 -1.053888,0.883565 -1.796396,0.883565 -0.750494,0 -1.357305,-0.251661 -1.820373,-0.755377 -0.463069,-0.503717 -0.694701,-1.157198 -0.694701,-1.959727 0,-0.811069 0.243348,-1.506738 0.730369,-2.087292 0.510974,-0.614704 1.138097,-0.922335 1.880606,-0.922335 z m -32.718181,1.114306 c -1.26945,0 -2.20398,0.192346 -2.802778,0.576537 -0.790413,0.495179 -1.185318,1.37463 -1.185318,2.638192 0,1.178182 0.362876,2.001669 1.089417,2.471235 0.558877,0.358574 1.429348,0.537766 2.610975,0.537766 0.12774,0 0.22383,-0.004 0.287704,-0.01252 v -1.703348 c -0.798397,0 -1.321421,-0.04678 -1.568924,-0.140697 -0.510973,-0.196363 -0.766626,-0.640371 -0.766626,-1.331913 0,-0.580554 0.155852,-0.981749 0.467227,-1.203727 0.247503,-0.170751 0.650416,-0.256379 1.209293,-0.256379 l 0.65903,0.01312 z m 4.837759,0 c -1.269449,0 -2.203394,0.192346 -2.802194,0.576537 -0.790411,0.495179 -1.185317,1.37463 -1.185317,2.638192 0,1.178182 0.362876,2.001669 1.089419,2.471235 0.558877,0.358574 1.429348,0.537766 2.610972,0.537766 0.127741,0 0.223247,-0.004 0.28712,-0.01252 v -1.703348 c -0.798396,0 -1.320834,-0.04678 -1.568338,-0.140697 -0.510974,-0.196363 -0.766628,-0.640371 -0.766628,-1.331913 0,-0.580554 0.155853,-0.981749 0.467228,-1.203727 0.247504,-0.170751 0.650417,-0.256379 1.209294,-0.256379 l 0.658444,0.01312 z" />
    </clipPath>
  </defs>
  <g
     inkscape:label="Layer 1"
     inkscape:groupmode="layer"
     id="layer1"
     transform="translate(-8.188778,-19.488815)">
    <text
       xml:space="preserve"
       style="font-style:normal;font-weight:normal;font-size:10.5833px;line-height:1.25;font-family:sans-serif;fill:#000000;fill-opacity:1;stroke:none;stroke-width:0.264583"
       x="111.194"
       y="58.449921"
       id="text16407"><tspan
         sodipodi:role="line"
         id="tspan16405"
         style="stroke-width:0.264583"
         x="111.194"
         y="58.449921" /></text>
    <g
       id="g19287"
       clip-path="url(#clipPath19289)"
       transform="translate(-12.746327,-12.153267)">
      <rect
         id="rect18930"
         width="44.018246"
         height="1.8492771"
         x="18.424898"
         y="39.428619"
         style="fill:#000080;stroke-width:0.264583" />
      <rect
         id="rect18930-3"
         width="44.018246"
         height="1.8492771"
         x="18.424898"
         y="37.579342"
         style="fill:#ff00ff;stroke-width:0.264583" />
      <rect
         id="rect18930-3-5"
         width="44.018246"
         height="1.8492771"
         x="18.424898"
         y="35.730064"
         style="fill:#008080;stroke-width:0.264583" />
      <rect
         id="rect18930-3-5-4"
         width="44.018246"
         height="1.8492771"
         x="18.424902"
         y="33.880787"
         style="fill:#ff9955;stroke-width:0.264583" />
      <rect
         id="rect18930-3-5-4-6"
         width="44.018246"
         height="1.8492771"
         x="18.424902"
         y="32.031509"
         style="fill:#ffe680;stroke-width:0.264583" />
    </g>
  </g>
</svg>
