<?xml version="1.0" encoding="UTF-8" standalone="no"?>
<!-- Created with Inkscape (http://www.inkscape.org/) -->

<svg
   width="40mm"
   height="8mm"
   viewBox="0 0 40 8"
   version="1.1"
   id="svg5"
   inkscape:version="1.1.2 (0a00cf5339, 2022-02-04)"
   sodipodi:docname="cc2600.svg"
   inkscape:export-filename="/home/steux/bitmap.png"
   inkscape:export-xdpi="165.43468"
   inkscape:export-ydpi="165.43468"
   xmlns:inkscape="http://www.inkscape.org/namespaces/inkscape"
   xmlns:sodipodi="http://sodipodi.sourceforge.net/DTD/sodipodi-0.dtd"
   xmlns="http://www.w3.org/2000/svg"
   xmlns:svg="http://www.w3.org/2000/svg">
  <sodipodi:namedview
     id="namedview7"
     pagecolor="#ffffff"
     bordercolor="#666666"
     borderopacity="1.0"
     inkscape:pageshadow="2"
     inkscape:pageopacity="0.0"
     inkscape:pagecheckerboard="0"
     inkscape:document-units="mm"
     showgrid="false"
     fit-margin-top="0"
     fit-margin-left="0"
     fit-margin-right="0"
     fit-margin-bottom="0"
     inkscape:zoom="5.5731762"
     inkscape:cx="63.967115"
     inkscape:cy="10.137846"
     inkscape:window-width="1920"
     inkscape:window-height="1016"
     inkscape:window-x="0"
     inkscape:window-y="0"
     inkscape:window-maximized="1"
     inkscape:current-layer="layer1" />
  <defs
     id="defs2" />
  <g
     inkscape:label="Layer 1"
     inkscape:groupmode="layer"
     id="layer1"
     transform="translate(-14.368634,-19.170878)">
    <g
       id="g19282"
       transform="matrix(1.0830486,0,0,1,-4.3907779,0.26407649)">
      <rect
         style="fill:#000080;stroke-width:0.264583"
         id="rect18993"
         width="36.321644"
         height="1.5833461"
         x="17.320932"
         y="25.277163" />
      <rect
         style="fill:#ff00ff;stroke-width:0.264583"
         id="rect18993-7"
         width="36.321644"
         height="1.5833461"
         x="17.320932"
         y="23.693815" />
      <rect
         style="fill:#008080;stroke-width:0.264583"
         id="rect18993-7-2"
         width="36.321644"
         height="1.5833461"
         x="17.320934"
         y="22.110468" />
      <rect
         style="fill:#ff7f2a;stroke-width:0.264583"
         id="rect18993-7-2-3"
         width="36.321644"
         height="1.5833461"
         x="17.320932"
         y="20.527121" />
      <rect
         style="fill:#ffdd55;stroke-width:0.264583"
         id="rect18993-7-2-3-7"
         width="36.321644"
         height="1.5833461"
         x="17.320932"
         y="18.943773" />
    </g>
    <path
       d="m 18.992708,27.143654 q -0.08655,0.01104 -0.259631,0.01104 -1.601061,0 -2.358319,-0.463373 -0.984435,-0.606798 -0.984435,-2.129307 0,-1.632837 1.07098,-2.272733 0.811348,-0.49647 2.531405,-0.49647 v 1.368052 l -0.594988,-0.01103 q -0.757258,0 -1.092616,0.220654 -0.421901,0.286849 -0.421901,1.037071 0,0.893648 0.69235,1.147399 0.335358,0.12136 1.417155,0.12136 z"
       id="path19284"
       style="font-size:10.9248px;line-height:1.25;font-family:MumboSSK;-inkscape-font-specification:'MumboSSK, Normal';fill:#ffffff;stroke-width:0.27312" />
    <path
       d="m 23.493346,27.080416 q -0.08654,0.01104 -0.259631,0.01104 -1.601061,0 -2.358319,-0.463373 -0.984434,-0.606798 -0.984434,-2.129307 0,-1.632837 1.070979,-2.272733 0.811348,-0.49647 2.531405,-0.49647 v 1.368052 l -0.594988,-0.01103 q -0.757258,0 -1.092616,0.220654 -0.421901,0.286849 -0.421901,1.037071 0,0.893648 0.692351,1.147399 0.335357,0.12136 1.417154,0.12136 z"
       id="path19286"
       style="font-size:10.9248px;line-height:1.25;font-family:MumboSSK;-inkscape-font-specification:'MumboSSK, Normal';fill:#ffffff;stroke-width:0.27312" />
    <path
       d="m 29.973273,26.926852 h -4.121648 q -0.421901,0 -0.735623,-0.187555 -0.378629,-0.220653 -0.378629,-0.628863 0,-0.650928 0.919528,-1.577673 0.843802,-0.78332 1.687604,-1.566641 0.90871,-0.893647 0.90871,-1.456313 0,-0.353047 -0.227177,-0.606798 -0.21636,-0.264785 -0.562535,-0.264785 -0.389447,0 -0.69235,0.231687 -0.335358,0.253752 -0.335358,0.639896 0,0.485437 0.584171,0.937778 l -1.081798,1.1143 q -1.060161,-0.794353 -1.060161,-2.052078 0,-1.059138 0.876256,-1.732132 0.80053,-0.606797 1.871509,-0.606797 0.930346,0 1.54697,0.728157 0.573353,0.695059 0.573353,1.665935 0,0.937778 -0.454355,1.40115 l -2.434044,2.504419 h 3.115577 z"
       id="path19288"
       style="font-size:10.9248px;line-height:1.25;font-family:MumboSSK;-inkscape-font-specification:'MumboSSK, Normal';stroke-width:0.27312" />
    <path
       d="m 36.128685,24.532761 q 0,1.081203 -0.822166,1.787294 -0.768077,0.672994 -1.860692,0.672994 -1.125069,0 -1.882327,-0.794353 -0.757258,-0.794353 -0.757258,-1.952785 0,-0.728157 0.984435,-2.504419 0.724804,-1.246692 1.449609,-2.482353 h 1.741694 q -0.74644,1.279791 -1.482063,2.548549 -1.070979,1.908655 -1.070979,2.526484 0,0.441308 0.356992,0.794354 0.356994,0.342013 0.789713,0.342013 0.411083,0 0.69235,-0.342013 0.281268,-0.353046 0.281268,-0.772288 0,-0.485438 -0.335358,-0.827451 -0.324539,-0.342013 -0.811348,-0.386144 l 0.757258,-1.368052 q 0.930346,0.253751 1.449609,1.015006 0.519263,0.750223 0.519263,1.743164 z"
       id="path19290"
       style="font-size:10.9248px;line-height:1.25;font-family:MumboSSK;-inkscape-font-specification:'MumboSSK, Normal';stroke-width:0.27312" />
    <path
       d="m 44.577507,22.96612 q 0,1.787295 -1.125069,2.912628 -1.11425,1.114301 -2.866763,1.114301 -1.720057,0 -2.726129,-0.981909 -0.995253,-0.981908 -0.995253,-2.736104 0,-1.743165 1.027707,-2.901596 1.049343,-1.202562 2.736947,-1.202562 1.709241,0 2.812673,1.015007 1.135887,1.059137 1.135887,2.780235 z m -1.741693,0.07722 q 0,-1.02604 -0.540899,-1.699033 -0.584171,-0.717124 -1.579423,-0.717124 -1.006073,0 -1.698423,0.794353 -0.659896,0.750223 -0.659896,1.798327 0,1.037072 0.627443,1.688 0.627442,0.650928 1.644331,0.650928 1.006072,0 1.622696,-0.761255 0.584171,-0.717124 0.584171,-1.754196 z"
       id="path19292"
       style="font-size:10.9248px;line-height:1.25;font-family:MumboSSK;-inkscape-font-specification:'MumboSSK, Normal';stroke-width:0.27312" />
    <path
       d="m 52.961432,22.96612 q 0,1.787295 -1.125069,2.912628 -1.114252,1.114301 -2.866763,1.114301 -1.720058,0 -2.72613,-0.981909 -0.995253,-0.981908 -0.995253,-2.736104 0,-1.743165 1.027708,-2.901596 1.049343,-1.202562 2.736947,-1.202562 1.709239,0 2.812673,1.015007 1.135887,1.059137 1.135887,2.780235 z m -1.741694,0.07722 q 0,-1.02604 -0.540899,-1.699033 -0.58417,-0.717124 -1.579424,-0.717124 -1.006071,0 -1.698421,0.794353 -0.659897,0.750223 -0.659897,1.798327 0,1.037072 0.627442,1.688 0.627443,0.650928 1.644333,0.650928 1.006071,0 1.622696,-0.761255 0.58417,-0.717124 0.58417,-1.754196 z"
       id="path19294"
       style="font-size:10.9248px;line-height:1.25;font-family:MumboSSK;-inkscape-font-specification:'MumboSSK, Normal';stroke-width:0.27312" />
  </g>
</svg>
